<?xml version="1.0" encoding="UTF-8" standalone="no"?>
<svg
   xmlns:dc="http://purl.org/dc/elements/1.1/"
   xmlns:cc="http://creativecommons.org/ns#"
   xmlns:rdf="http://www.w3.org/1999/02/22-rdf-syntax-ns#"
   xmlns:svg="http://www.w3.org/2000/svg"
   xmlns="http://www.w3.org/2000/svg"
   viewBox="0 0 1333.3333 1333.3333"
   height="1333.3333"
   width="1333.3333"
   xml:space="preserve"
   id="svg2"
   version="1.1"><metadata
     id="metadata8"><rdf:RDF><cc:Work
         rdf:about=""><dc:format>image/svg+xml</dc:format><dc:type
           rdf:resource="http://purl.org/dc/dcmitype/StillImage" /></cc:Work></rdf:RDF></metadata><defs
     id="defs6"><clipPath
       id="clipPath18"
       clipPathUnits="userSpaceOnUse"><path
         id="path16"
         d="M 0,1000 H 1000 V 0 H 0 Z" /></clipPath><clipPath
       id="clipPath34"
       clipPathUnits="userSpaceOnUse"><path
         id="path32"
         d="M 0,1000 H 1000 V 0 H 0 Z" /></clipPath><clipPath
       id="clipPath46"
       clipPathUnits="userSpaceOnUse"><path
         id="path44"
         d="M 0,1000 H 1000 V 0 H 0 Z" /></clipPath><clipPath
       id="clipPath58"
       clipPathUnits="userSpaceOnUse"><path
         id="path56"
         d="M 0,1000 H 1000 V 0 H 0 Z" /></clipPath><clipPath
       id="clipPath70"
       clipPathUnits="userSpaceOnUse"><path
         id="path68"
         d="M 0,1000 H 1000 V 0 H 0 Z" /></clipPath><clipPath
       id="clipPath94"
       clipPathUnits="userSpaceOnUse"><path
         id="path92"
         d="M 0,1000 H 1000 V 0 H 0 Z" /></clipPath></defs><g
     transform="matrix(1.3333333,0,0,-1.3333333,0,1333.3333)"
     id="g10"><g
       id="g12"><g
         clip-path="url(#clipPath18)"
         id="g14"><g
           transform="translate(597.3271,564.3984)"
           id="g20"><path
             id="path22"
             style="fill:#000000;fill-opacity:1;fill-rule:nonzero;stroke:none"
             d="m 0,0 c 3.529,-0.214 22.593,-78.232 23.522,-81.297 3.818,-12.574 7.746,-25.116 11.792,-37.618 8.164,-25.225 13.003,-50.897 11.837,-77.582 -0.494,-11.307 -0.005,-22.66 0.129,-33.99 0.245,-20.633 0.392,-41.269 0.898,-61.896 0.429,-17.504 3.403,-34.425 13.089,-49.553 4.839,-7.559 9.137,-15.492 14.338,-22.788 5.078,-7.122 10.203,-14.557 16.725,-20.222 10.133,-8.803 21.008,-16.911 33.783,-21.913 2.418,-0.947 5.013,-2.421 6.579,-4.401 8.62,-10.901 16.885,-22.082 25.433,-33.042 1.45,-1.859 3.449,-3.728 5.593,-4.534 8.827,-3.315 18.026,-4.743 27.433,-3.42 4.073,0.573 9.294,0.594 11.835,3.075 9.036,8.824 21.161,15.938 20.787,31.224 -0.035,1.439 1.38,3.994 2.475,4.206 6.447,1.249 6.145,5.755 5.177,10.275 -3.454,16.14 -7.654,31.716 -18.289,45.304 -22.788,29.118 -44.856,58.809 -66.802,88.572 -9.609,13.034 -17.711,27.136 -21.154,43.217 -2.332,10.893 -4.032,21.949 -5.462,33.004 -4.586,35.456 -11.46,70.298 -26.234,103.152 -0.487,1.084 -0.644,2.318 -1.105,4.041 18.678,-5.064 -40.423,82.55 -38.662,88.635" /></g><g
           transform="translate(651.2861,566.1577)"
           id="g24"><path
             id="path26"
             style="fill:#000000;fill-opacity:1;fill-rule:nonzero;stroke:none"
             d="m 0,0 c -0.659,3.006 -4.251,1.058 -5.079,3.423 -2.714,7.756 -9.003,12.37 -14.67,17.597 -4.121,-5.873 -7.85,-11.381 -11.843,-16.69 -0.686,-0.913 -4.385,5.064 -5.694,5.012 -4.27,-0.167 -6.653,-6.444 -11.565,-6.444 1.056,-2.818 -6.929,2.14 -6.06,-0.181 -3.529,-0.328 8.02,-10.414 4.875,-10.625" /></g></g></g><g
       id="g28"><g
         clip-path="url(#clipPath34)"
         id="g30"><g
           transform="translate(478.1406,474.4365)"
           id="g36"><path
             id="path38"
             style="fill:#000000;fill-opacity:1;fill-rule:nonzero;stroke:none"
             d="m 0,0 c 0,-7.892 0.157,-15.368 -0.032,-22.837 -0.433,-17.114 -0.135,-34.31 -1.764,-51.317 -3.02,-31.509 -6.891,-62.914 -6.612,-94.662 0.095,-10.808 -0.744,-21.643 -1.572,-32.433 -0.93,-12.125 -8.938,-17.097 -20.128,-12.585 -16.506,6.654 -32.98,13.397 -49.338,20.406 -10.237,4.387 -20.235,9.333 -30.34,14.031 -1.271,0.59 -2.539,1.188 -5.058,2.369 6.111,-7.574 11.318,-14.027 16.539,-20.496 -2.859,-1.92 -2.589,-10.273 -0.227,-12.921 4.595,-5.151 8.747,-10.701 13.389,-15.805 6.049,-6.65 12.395,-13.028 18.618,-19.521 0.112,-0.117 0.265,-0.223 0.419,-0.268 8.707,-2.552 14.477,-9.275 20.996,-14.901 1.185,-1.024 1.779,-2.708 2.74,-4.018 1.704,-2.321 3.008,-5.384 5.304,-6.752 15.432,-9.194 27.062,-22.602 39.378,-35.199 3.639,-3.723 7.482,-6.139 12.436,-6.459 5.127,-0.331 10.422,-0.701 15.41,0.216 4.402,0.807 9.066,2.608 12.574,5.316 6.24,4.816 12.834,9.548 16.286,17.2 0.609,1.35 2.513,2.086 3.744,3.191 5.604,5.028 10.434,10.248 11.976,18.31 0.789,4.123 4.435,7.814 7.166,11.414 1.981,2.611 5.397,4.361 6.747,7.177 3.797,7.915 7.804,15.933 10.028,24.358 6.573,24.915 7.042,50.579 5.032,75.956 -1.543,19.482 -6.103,38.767 -9.94,58.016 -4.325,21.69 -9.103,43.296 -14.149,64.829 -3.099,13.219 -7.07,26.234 -10.894,40.236 3.83,0 -17.369,14.712 -26.613,18.973 -6.499,2.996 -12.506,6.239 -23.506,2.739" /></g></g></g><g
       id="g40"><g
         clip-path="url(#clipPath46)"
         id="g42"><g
           transform="translate(319.75,533.25)"
           id="g48"><path
             id="path50"
             style="fill:#000000;fill-opacity:1;fill-rule:nonzero;stroke:none"
             d="m 0,0 c -7,-9.515 -37.009,-38.871 -36.75,-50.25 0.25,-11 4.076,-14.207 2.75,-21.5 -3,-16.5 -2.25,-2 -5.29,-24.518 0.494,-0.97 0.865,-1.39 0.915,-1.844 0.689,-6.29 1.231,-12.598 2.007,-18.876 4.485,-36.284 7.187,-72.646 3.711,-109.172 -0.604,-6.345 -1.945,-13.003 -4.659,-18.7 -17.948,-37.68 -39.228,-73.411 -64.571,-106.623 -5.953,-7.802 -13.628,-14.434 -18.753,-22.695 -9.846,-15.871 -23.039,-28.394 -36.799,-40.532 -1.191,-1.05 -2.975,-1.429 -4.483,-2.119 2.611,-2.42 3.596,-2.999 4.617,-3.506 8.928,-4.423 17.68,-6.773 26.311,0.964 1.069,0.958 4.375,0.743 5.76,-0.212 4.563,-3.149 9.088,-2.445 13.823,-1.022 1.89,0.568 3.862,1.662 5.697,1.484 13.137,-1.276 22.618,7.525 31.551,14.008 12.209,8.858 21.654,21.543 32.207,32.661 13.867,14.61 27.588,29.359 41.547,43.881 2.496,2.596 5.592,4.889 8.831,6.451 13.012,6.271 22.562,15.498 27.377,29.41 3.348,9.673 7.483,19.089 -0.309,28.713 -1.41,1.743 -1.683,4.664 -1.867,7.088 -0.34,4.478 -0.194,8.992 -0.306,13.49 -0.383,15.434 -3.67,30.118 -12.583,42.956 -8.678,12.5 -14.425,26.14 -17.93,40.864 -4.319,18.146 -6.537,36.318 -2.686,54.903 1.081,5.218 3.528,8.654 8.092,11.157 3.617,1.983 2.827,10.158 6.373,12.289 3.155,1.896 7,8.333 6.667,15.667 C 20.964,-59.292 31,-17.5 10.5,3.25" /></g></g></g><g
       id="g52"><g
         clip-path="url(#clipPath58)"
         id="g54"><g
           transform="translate(546.8682,487.2871)"
           id="g60"><path
             id="path62"
             style="fill:#000000;fill-opacity:1;fill-rule:nonzero;stroke:none"
             d="m 0,0 c 3.83,0 5.96,0.007 8.09,-0.001 7.156,-0.023 14.568,-1.264 21.413,0.184 13.02,2.753 25.804,1.28 38.728,0.495 3.53,-0.214 2.45,0.35 5.651,0.285 12.25,-0.25 4.167,-0.208 11.083,-0.917 1.231,-0.126 4.667,0.167 4.667,0.167 h 4.75 c 0,0 1.412,0.546 3.25,0.062 0.792,-0.208 0.84,-0.44 1.667,-0.479 0.221,-0.01 0.279,0.052 7.083,-2.583 2.142,-0.83 2.75,-0.833 2.75,-0.833 l 3.605,-0.741 10.475,-1.118 1.92,-1.141 6.728,-0.175 3.459,-1.055 3.218,-0.832 5.72,-1.105 3.75,-0.313 3.562,-0.625 4.438,-0.875 3.812,-0.875 1.625,-0.375 1.875,-0.25 c 6.5,-2.5 9.25,-4 9.938,-4.062 1.183,-0.108 1.562,-0.063 2.875,-0.625 18.679,-5.066 3.364,-1.193 21.315,-6.141 2.223,-0.611 4.391,-1.601 6.412,-2.724 8.145,-4.524 15.832,-10.177 24.429,-13.494 9.211,-3.554 17.6,-8.026 25.517,-13.766 9.915,-7.19 21.417,-7.127 31.619,-0.241 4.626,3.123 9.247,4.082 14.381,0.662 2.227,-1.484 5.176,-1.886 7.799,-2.78 -0.95,1.65 -2.284,2.489 -3.677,3.211 -4.451,2.307 -5.517,6.749 -3.47,10.194 3.529,5.939 5.903,13.268 13.649,15.758 7.715,2.478 11.117,8.006 12.157,15.956 1.052,8.047 2.494,16.202 5.162,23.82 1.671,4.769 1.38,7.103 -2.318,10.616 -5.343,5.076 -11.072,10.911 -11.173,18.731 -0.063,4.799 -1.724,7.073 -5.316,8.926 -2.062,1.064 -4.223,1.944 -6.368,2.842 -6.758,2.831 -9.469,7.543 -8.127,15.657 -7.388,2.627 -14.968,5.322 -23.018,8.184 L -256.281,33.568 c -27.56,-4.722 -55.157,-9.235 -82.743,-13.807 -11.867,-1.966 -23.727,-3.461 -35.74,-1.019 -3.92,0.797 -5.828,2.79 -5.58,6.845 0.224,3.655 0.036,7.356 0.533,10.968 0.492,3.575 -1.079,4.966 -4.16,6.174 -6.519,2.558 -10.209,-2.042 -14.566,-5.148 -1.735,-1.237 -3.869,-3.726 -5.224,-3.369 -6.121,1.609 -10.479,-2.343 -15.446,-4.176 -1.105,-0.409 -2.033,-2.557 -2.191,-3.996 -0.302,-2.751 0.185,-5.58 0.019,-8.357 -0.189,-3.188 -0.896,-6.344 -1.089,-9.532 -0.54,-8.926 -0.122,-18.013 -1.737,-26.73 -0.761,-4.106 -0.397,-6.775 1.697,-9.874 6.329,-9.369 12.567,-18.801 18.875,-28.184 0.644,-0.958 1.467,-1.818 2.307,-2.618 14.091,-13.418 29.579,-23.212 49.583,-26.796 13.505,-2.419 23.595,2.581 32.772,9.314 6.077,4.458 12.108,8.544 18.85,11.625 11.153,5.095 22.449,9.88 33.713,14.807 0.494,-0.97 0.865,-1.39 0.914,-1.844" /></g></g></g><g
       id="g64"><g
         clip-path="url(#clipPath70)"
         id="g66"><g
           transform="translate(555.4121,623.2256)"
           id="g72"><path
             id="path74"
             style="fill:#000000;fill-opacity:1;fill-rule:nonzero;stroke:none"
             d="m 0,0 c 4.388,0.931 8.06,1.709 11.73,2.487 0.25,0.52 0.5,1.039 0.751,1.558 C 9.04,5.974 5.599,7.902 1.35,10.284 0.801,6.104 0.435,3.312 0,0" /></g><g
           transform="translate(502.832,689.8345)"
           id="g76"><path
             id="path78"
             style="fill:#000000;fill-opacity:1;fill-rule:nonzero;stroke:none"
             d="m 0,0 c -0.206,0.491 -0.413,0.983 -0.62,1.474 -4.807,-1.984 -9.613,-3.968 -14.42,-5.953 0.218,-0.564 0.436,-1.13 0.653,-1.695 C -8.269,-7.071 -3.663,-4.587 0,0" /></g><g
           transform="translate(822.1494,581.5835)"
           id="g80"><path
             id="path82"
             style="fill:#000000;fill-opacity:1;fill-rule:nonzero;stroke:none"
             d="m 0,0 c -2.522,18.008 -8.411,34.69 -23.409,45.935 -10.416,7.81 -21.43,15.303 -34.25,18.993 -14.691,4.228 -29.446,8.251 -44.264,12.007 -5.768,1.461 -11.784,1.953 -17.687,2.881 -12.151,1.909 -24.452,3.154 -36.413,5.891 -14.609,3.342 -28.851,8.387 -44.197,6.917 -2.137,-0.205 -4.324,0.134 -6.489,0.192 -14.311,0.383 -28.623,0.727 -42.933,1.144 -10.816,0.315 -21.834,-0.466 -32.398,1.353 -16.605,2.858 -33.3,2.776 -49.953,4.025 -6.559,0.492 -13.046,1.954 -19.566,2.974 l 0.037,0.667 c 4.356,0.727 8.713,1.453 13.07,2.18 0.147,0.567 0.293,1.134 0.44,1.701 -1.571,0.667 -3.115,1.832 -4.716,1.914 -7.386,0.38 -14.787,0.479 -22.184,0.614 -0.787,0.015 -1.87,-0.131 -2.33,-0.64 -5.177,-5.746 -10.134,-0.969 -16.541,-0.395 2.712,1.214 4.063,1.819 5.414,2.424 -0.102,0.341 -0.204,0.681 -0.307,1.022 -34.487,3.527 -68.975,7.054 -103.948,10.63 1.052,1.654 1.468,2.309 1.823,2.867 h -23.307 c -0.035,0.28 -0.07,0.56 -0.105,0.84 0.721,0.419 1.442,0.837 2.249,1.305 -2.923,0.623 -5.615,1.159 -8.289,1.775 -5.177,1.193 -10.298,2.691 -15.522,3.603 -16.057,2.803 -32.324,4.64 -48.184,8.272 -15.167,3.473 -29.354,9.925 -41.07,20.635 -1.554,1.42 -2.956,4.362 -2.611,6.271 1.636,9.026 14.232,20.507 23.613,21.417 13.705,1.327 27.464,2.107 41.196,3.161 2.222,0.171 4.427,0.55 6.64,0.833 0.045,0.607 0.089,1.214 0.134,1.821 -2.258,0.53 -4.489,1.284 -6.778,1.555 -15.497,1.835 -31.037,2.973 -46.133,7.719 -7.885,2.478 -16.508,1.001 -23.619,-3.19 -26.268,-15.48 -37.772,-40.249 -41.394,-69.27 -2.057,-16.469 0.826,-32.761 2.835,-49.167 2.701,-22.058 13.359,-37.466 32.791,-47.423 5.331,-2.732 10.535,-5.712 15.786,-8.599 15.196,-8.354 32,-10.969 48.819,-12.817 9.836,-1.08 19.889,-0.031 29.833,-0.319 8.822,-0.256 17.624,-1.116 26.442,-1.528 2.248,-0.104 4.57,0.294 6.785,0.787 6.694,1.485 13.279,3.667 20.042,4.594 11.082,1.518 22.358,1.658 33.034,5.628 3.868,1.439 7.802,3.122 11.834,3.6 6.751,0.801 13.608,0.683 20.414,1.06 1.05,0.058 2.069,0.689 3.102,1.055 -0.087,0.197 -0.174,0.394 -0.261,0.591 -6.57,0.366 -13.139,0.732 -19.709,1.098 0.013,0.294 0.026,0.588 0.039,0.883 8.65,0.551 17.3,1.102 26.196,1.67 -3.208,4.066 -0.871,5.286 2.439,5.333 7.328,0.103 14.66,-0.173 21.99,-0.19 2.371,-0.005 4.743,0.313 7.115,0.483 -0.021,0.301 -0.041,0.603 -0.062,0.905 -5.162,0.477 -10.323,0.955 -15.485,1.433 28.336,6.201 57.04,2.131 85.663,4.55 -0.079,0.748 -0.676,2.356 -0.223,2.746 3.022,2.601 6.267,4.941 9.868,7.694 1.145,-2.858 2.223,-5.545 2.966,-7.399 3.85,-0.471 7.031,-1.09 10.223,-1.155 1.659,-0.034 3.356,0.861 5.005,1.425 2.716,0.931 5.343,2.43 8.125,2.794 4.579,0.6 9.253,0.484 13.887,0.67 -0.011,0.353 -0.021,0.706 -0.032,1.059 -3.976,2.19 -7.954,4.38 -11.93,6.57 0.233,0.291 0.467,0.582 0.7,0.873 h 17.534 c -0.101,-2.161 -0.165,-3.531 -0.228,-4.9 1.246,0.257 1.592,0.931 2.104,1.436 0.875,0.865 1.915,2.379 2.778,2.309 7.838,-0.642 15.648,-1.626 23.477,-2.389 5.471,-0.534 10.982,-1.401 16.434,-1.16 5.237,0.232 10.005,-1.719 15.199,-1.901 10.902,-0.381 21.752,-2.233 32.623,-3.481 -0.014,-0.268 -0.027,-0.535 -0.041,-0.802 -2.396,-0.11 -4.79,-0.219 -7.186,-0.329 4.775,-1.532 9.651,-2.1 14.5,-2.84 3.272,-0.499 5.372,0.86 6.994,3.567 2.306,3.851 4.631,7.705 7.221,11.364 0.741,1.048 2.579,2.138 3.635,1.912 1.037,-0.223 2.051,-1.982 2.494,-3.267 1.246,-3.607 3.836,-4.558 6.936,-2.374 0.618,0.435 1.494,0.504 3.376,1.094 -2.746,-2.577 -4.571,-4.29 -6.705,-6.293 2.269,-0.764 4.328,-1.372 6.324,-2.141 9.782,-3.766 19.548,-7.575 29.319,-11.369 -0.232,-0.663 -0.464,-1.325 -0.696,-1.988 -3.075,0.995 -6.134,2.046 -9.23,2.973 -11.14,3.334 -22.279,6.679 -33.468,9.845 -1.059,0.3 -2.464,-0.625 -3.709,-0.981 0.862,-0.778 1.601,-1.977 2.604,-2.268 8.635,-2.504 17.297,-4.135 25.598,-8.535 11.18,-5.927 25.871,-9.428 37.509,-15.61 10.234,-5.437 24.84,-14.714 40.205,-30.569 l 20.333,-19.5 c 3.407,2.816 9.706,8.92 10.738,17.82 C 1.393,-5.371 0.312,-2.227 0,0" /></g><g
           transform="translate(783.4375,572.6519)"
           id="g84"><path
             id="path86"
             style="fill:#000000;fill-opacity:1;fill-rule:nonzero;stroke:none"
             d="M 0,0 C 3.231,-0.737 5.807,-1.324 8.382,-1.912 3.424,3.64 3.291,3.673 0,0" /></g></g></g><g
       id="g88"><g
         clip-path="url(#clipPath94)"
         id="g90"><g
           transform="translate(209.7012,880.2549)"
           id="g96"><path
             id="path98"
             style="fill:#000000;fill-opacity:1;fill-rule:nonzero;stroke:none"
             d="M 0,0 C -2.659,3.16 -5.317,6.32 -7.976,9.48 L -9.2,8.468 C -6.583,5.27 -3.966,2.072 -1.349,-1.127 -0.899,-0.751 -0.45,-0.375 0,0" /></g><g
           transform="translate(786.6875,772.6089)"
           id="g100"><path
             id="path102"
             style="fill:#000000;fill-opacity:1;fill-rule:nonzero;stroke:none"
             d="m 0,0 c -2.264,12.188 -7.122,23.878 -10.577,35.864 -3.831,13.29 -11.944,23.562 -21.842,32.81 -12.042,11.251 -26.953,16.824 -42.092,22.099 -6.113,2.131 -11.959,5.925 -18.194,6.647 -20.306,2.35 -40.717,3.955 -61.127,5.173 -9.039,0.539 -18.196,-1.118 -27.261,-0.767 -22.213,0.862 -44.336,3.698 -66.665,2.146 -5.717,-0.398 -10.701,-1.249 -15.197,-4.932 -1.566,-1.284 -3.793,-2.02 -5.833,-2.422 -13.486,-2.656 -27.295,-4.163 -40.425,-8.001 -11.422,-3.339 -22.858,-4.004 -34.454,-4.769 -10.467,-0.69 -21.02,-0.873 -31.365,-2.42 -16.724,-2.502 -33.384,-2.507 -50.138,-1.047 -1.397,0.122 -2.848,-0.374 -4.274,-0.582 0.03,-0.411 0.059,-0.822 0.089,-1.233 20.311,-1.477 40.622,-2.954 60.933,-4.431 -0.035,-0.239 -0.07,-0.478 -0.105,-0.717 -7.811,0 -15.629,-0.196 -23.432,0.054 -8.488,0.272 -16.959,1.277 -25.445,1.365 -7.018,0.073 -14.104,-1.498 -21.055,-0.966 -12.598,0.964 -25.107,3.042 -37.673,4.489 -15.824,1.822 -30.599,8.656 -46.963,8.559 -12.859,-0.076 -24.109,6.929 -35.548,12.274 -3.054,1.427 -6.096,2.879 -10.042,4.744 v -8.312 c -2.471,2.919 -4.26,5.034 -6.049,7.148 -0.333,-0.231 -0.665,-0.463 -0.998,-0.694 2.306,-6.137 4.613,-12.274 6.919,-18.411 0.41,0.142 0.819,0.283 1.229,0.424 -0.177,2.903 -0.353,5.805 -0.595,9.772 11.9,-14.785 20.026,-31.51 35.577,-41.921 -23.476,7.533 -40.118,24.659 -58.179,41.16 1.878,-2.895 3.325,-5.405 5.037,-7.721 13.918,-18.839 31.873,-32.841 53.564,-41.194 20.765,-7.996 42.205,-14.23 63.281,-21.435 5.073,-1.734 9.88,-4.248 15.848,-6.858 -2.977,0.139 -4.735,0.221 -7.274,0.339 4.095,-4.28 16.091,-6.594 19.681,-4.038 -3.786,0.683 -7.236,1.306 -10.687,1.929 0.131,0.704 0.262,1.408 0.393,2.111 5.771,-0.961 11.556,-1.849 17.306,-2.924 1.931,-0.362 5.142,-0.82 5.434,-1.879 1.832,-6.627 5.665,-1.755 8.55,-1.782 1.153,-0.011 2.366,0.766 3.459,0.595 9.04,-1.426 18.059,-2.987 27.081,-4.531 0.177,-0.03 0.305,-0.347 0.468,-0.547 -1.167,-0.505 -2.276,-0.986 -4.711,-2.042 3.841,-0.25 6.974,0.498 8.496,-0.738 3.846,-3.126 7.678,-2.03 11.688,-1.443 1.122,0.164 2.294,0.473 3.381,0.308 7.028,-1.065 14.002,-2.813 21.063,-3.279 24.262,-1.603 48.538,-3.155 72.833,-4.025 58.273,-2.087 116.519,-4.273 174.399,-12.07 24.131,-3.251 47.391,-8.926 68.482,-21.696 8.414,-5.094 12.576,-14.178 10.765,-23.722 -0.303,-1.593 0.397,-3.376 0.635,-5.071 1.726,0.735 3.68,1.182 5.103,2.304 1.048,0.826 1.313,2.589 2.08,3.84 2.102,3.422 3.655,7.528 6.571,10.027 5.482,4.7 9.886,10.268 10.005,17.175 C 2.353,-23.504 2.137,-11.507 0,0" /></g></g></g></g></svg>